<svg width="800" height="600" viewBox="0 0 800 600" fill="none" xmlns="http://www.w3.org/2000/svg">
<path fill-rule="evenodd" clip-rule="evenodd" d="M332.312 249.897C330.001 251.233 322.981 255.283 316.747 258.867L305.423 265.398L304.638 266.438C304.193 267.01 303.684 267.986 303.493 268.601L303.154 269.724L303.006 291.524L302.857 313.324L302.221 314.575C301.882 315.254 301.245 316.102 300.843 316.441C300.44 316.78 291.894 321.785 281.863 327.574C271.833 333.342 263.35 338.304 263.032 338.623C262.714 338.919 262.163 339.746 261.824 340.446L261.187 341.697V360.083V378.468L261.633 379.062L262.099 379.635L262.693 379.508C263.541 379.338 335.578 337.902 336.426 337.096C336.808 336.735 337.402 335.866 337.762 335.166L338.377 333.894L338.335 291.015L338.271 248.137L337.847 247.819C337.614 247.628 337.232 247.479 336.977 247.479C336.744 247.479 334.645 248.561 332.312 249.897ZM207.176 225.087C210.866 222.945 214.174 221.164 214.492 221.121C215.616 220.952 216.57 220.973 217.397 221.206C218.564 221.524 290.197 262.855 290.94 263.618C291.279 264 291.512 264.466 291.512 264.827C291.512 265.208 291.3 265.633 290.94 265.972C289.964 266.841 260.021 283.933 258.961 284.188C257.731 284.506 256.374 284.315 255.08 283.658C252.875 282.534 183.023 242.115 182.556 241.712C181.983 241.161 181.92 240.016 182.471 239.464C182.811 239.125 189.151 235.435 207.176 225.087ZM266.34 239.548C266.892 238.955 297.131 221.502 298.149 221.205C299.167 220.908 300.227 220.93 301.394 221.29C302.878 221.735 332.164 238.615 333.033 239.527C333.796 240.354 333.881 240.863 333.351 241.521C333.139 241.754 326.056 245.931 317.595 250.809C306.929 256.937 301.86 259.758 301.033 259.97L299.867 260.288L298.595 259.97C297.64 259.736 293.696 257.552 282.287 251C273.338 245.847 266.955 242.051 266.552 241.627C265.725 240.778 265.683 240.269 266.34 239.548ZM177 248.667L177.467 248.179C178.188 247.415 178.993 247.543 181.241 248.836C198.503 258.591 251.73 289.467 252.345 290.06C252.79 290.485 253.426 291.312 253.723 291.905L254.296 292.966V311.372L254.296 329.8L253.681 330.331C253.256 330.691 252.875 330.839 252.493 330.776C252.175 330.733 243.523 325.856 233.259 319.94C219.581 312.072 214.407 309.188 213.92 309.188C213.453 309.188 213.177 309.337 212.902 309.761L212.52 310.333L212.414 332.091C212.329 349.14 212.244 353.933 212.032 354.293C211.714 354.866 211.12 355.205 210.463 355.205C209.869 355.205 179.736 337.859 178.866 337.032C178.527 336.714 177.975 335.886 177.636 335.187L177 333.936V291.312L177 248.667ZM286.719 276.128C282.415 278.609 275.501 282.575 271.366 284.928L263.838 289.254L262.884 290.294C262.354 290.887 261.76 291.82 261.548 292.372L261.187 293.39V311.627V329.885L261.527 330.352C262.227 331.369 262.396 331.306 278.385 322.102L293.526 313.408L294.523 312.369C295.117 311.733 295.689 310.842 295.944 310.142L296.389 308.955V291.036V273.117L296.071 272.523C295.774 271.929 295.371 271.654 294.799 271.654C294.65 271.654 291.024 273.668 286.719 276.128ZM218.988 321.679L219.624 321.021C220.154 320.512 220.408 320.406 220.875 320.491C221.596 320.64 251.199 337.922 252.281 338.834C252.684 339.174 253.32 340.022 253.659 340.7L254.296 341.951L254.359 359.913L254.402 377.896L254.105 378.617C253.787 379.401 253.129 379.719 252.217 379.55C251.475 379.401 221.744 362.246 220.981 361.525C220.599 361.164 220.027 360.401 219.709 359.807L219.094 358.704L219.03 340.191L218.988 321.679Z" fill="#252A2E"/>
<path d="M391.205 265.093V251.998H398.67C399.771 251.998 400.832 252.08 401.852 252.243C402.872 252.406 403.769 252.732 404.544 253.222C405.319 253.671 405.931 254.323 406.38 255.18C406.869 256.037 407.114 257.158 407.114 258.545C407.114 259.932 406.869 261.054 406.38 261.911C405.931 262.767 405.319 263.441 404.544 263.93C403.769 264.379 402.872 264.685 401.852 264.848C400.832 265.011 399.771 265.093 398.67 265.093H391.205ZM381.598 244.533V288.222H391.205V272.558H401.301C404.034 272.558 406.359 272.17 408.277 271.395C410.194 270.579 411.744 269.519 412.927 268.213C414.151 266.908 415.028 265.419 415.558 263.746C416.129 262.033 416.415 260.3 416.415 258.545C416.415 256.751 416.129 255.017 415.558 253.344C415.028 251.672 414.151 250.183 412.927 248.878C411.744 247.572 410.194 246.532 408.277 245.757C406.359 244.941 404.034 244.533 401.301 244.533H381.598Z" fill="#252A2E"/>
<path d="M421.493 256.587V288.222H430.182V273.965C430.182 272.537 430.325 271.212 430.61 269.988C430.896 268.764 431.365 267.703 432.017 266.806C432.711 265.868 433.608 265.133 434.71 264.603C435.811 264.073 437.157 263.808 438.748 263.808C439.279 263.808 439.829 263.848 440.4 263.93C440.971 263.971 441.461 264.032 441.869 264.114V256.037C441.175 255.833 440.543 255.731 439.972 255.731C438.871 255.731 437.81 255.894 436.79 256.22C435.77 256.547 434.812 257.016 433.914 257.628C433.017 258.199 432.221 258.913 431.528 259.769C430.834 260.585 430.284 261.482 429.876 262.462H429.753V256.587H421.493Z" fill="#252A2E"/>
<path d="M451.91 272.435C451.91 271.171 452.032 269.927 452.277 268.703C452.521 267.479 452.929 266.398 453.5 265.46C454.112 264.522 454.908 263.767 455.887 263.196C456.866 262.584 458.09 262.278 459.558 262.278C461.027 262.278 462.25 262.584 463.229 263.196C464.249 263.767 465.045 264.522 465.616 265.46C466.228 266.398 466.656 267.479 466.901 268.703C467.146 269.927 467.268 271.171 467.268 272.435C467.268 273.7 467.146 274.944 466.901 276.168C466.656 277.351 466.228 278.432 465.616 279.411C465.045 280.349 464.249 281.104 463.229 281.675C462.25 282.246 461.027 282.531 459.558 282.531C458.09 282.531 456.866 282.246 455.887 281.675C454.908 281.104 454.112 280.349 453.5 279.411C452.929 278.432 452.521 277.351 452.277 276.168C452.032 274.944 451.91 273.7 451.91 272.435ZM443.221 272.435C443.221 274.964 443.608 277.249 444.383 279.288C445.158 281.328 446.26 283.082 447.688 284.551C449.115 285.978 450.829 287.08 452.827 287.855C454.826 288.63 457.07 289.017 459.558 289.017C462.047 289.017 464.29 288.63 466.289 287.855C468.329 287.08 470.062 285.978 471.49 284.551C472.918 283.082 474.019 281.328 474.794 279.288C475.569 277.249 475.957 274.964 475.957 272.435C475.957 269.906 475.569 267.622 474.794 265.582C474.019 263.502 472.918 261.748 471.49 260.32C470.062 258.851 468.329 257.73 466.289 256.955C464.29 256.139 462.047 255.731 459.558 255.731C457.07 255.731 454.826 256.139 452.827 256.955C450.829 257.73 449.115 258.851 447.688 260.32C446.26 261.748 445.158 263.502 444.383 265.582C443.608 267.622 443.221 269.906 443.221 272.435Z" fill="#252A2E"/>
<path d="M492.62 256.587V247.103H483.931V256.587H478.669V262.4H483.931V281.063C483.931 282.654 484.197 283.939 484.727 284.918C485.257 285.897 485.971 286.651 486.868 287.182C487.807 287.712 488.867 288.059 490.05 288.222C491.274 288.426 492.559 288.528 493.905 288.528C494.762 288.528 495.639 288.508 496.536 288.467C497.434 288.426 498.25 288.344 498.984 288.222V281.491C498.576 281.573 498.148 281.634 497.699 281.675C497.25 281.716 496.781 281.736 496.291 281.736C494.823 281.736 493.844 281.491 493.354 281.002C492.865 280.512 492.62 279.533 492.62 278.065V262.4H498.984V256.587H492.62Z" fill="#252A2E"/>
<path d="M510.828 272.435C510.828 271.171 510.95 269.927 511.195 268.703C511.44 267.479 511.847 266.398 512.419 265.46C513.03 264.522 513.826 263.767 514.805 263.196C515.784 262.584 517.008 262.278 518.476 262.278C519.945 262.278 521.169 262.584 522.148 263.196C523.167 263.767 523.963 264.522 524.534 265.46C525.146 266.398 525.574 267.479 525.819 268.703C526.064 269.927 526.186 271.171 526.186 272.435C526.186 273.7 526.064 274.944 525.819 276.168C525.574 277.351 525.146 278.432 524.534 279.411C523.963 280.349 523.167 281.104 522.148 281.675C521.169 282.246 519.945 282.531 518.476 282.531C517.008 282.531 515.784 282.246 514.805 281.675C513.826 281.104 513.03 280.349 512.419 279.411C511.847 278.432 511.44 277.351 511.195 276.168C510.95 274.944 510.828 273.7 510.828 272.435ZM502.139 272.435C502.139 274.964 502.526 277.249 503.301 279.288C504.076 281.328 505.178 283.082 506.606 284.551C508.033 285.978 509.747 287.08 511.745 287.855C513.744 288.63 515.988 289.017 518.476 289.017C520.965 289.017 523.208 288.63 525.207 287.855C527.247 287.08 528.98 285.978 530.408 284.551C531.836 283.082 532.937 281.328 533.712 279.288C534.487 277.249 534.875 274.964 534.875 272.435C534.875 269.906 534.487 267.622 533.712 265.582C532.937 263.502 531.836 261.748 530.408 260.32C528.98 258.851 527.247 257.73 525.207 256.955C523.208 256.139 520.965 255.731 518.476 255.731C515.988 255.731 513.744 256.139 511.745 256.955C509.747 257.73 508.033 258.851 506.606 260.32C505.178 261.748 504.076 263.502 503.301 265.582C502.526 267.622 502.139 269.906 502.139 272.435Z" fill="#252A2E"/>
<path d="M562.063 267.724H570.568C570.446 265.684 569.956 263.93 569.099 262.462C568.243 260.952 567.121 259.708 565.734 258.729C564.388 257.709 562.838 256.955 561.084 256.465C559.37 255.976 557.576 255.731 555.699 255.731C553.129 255.731 550.845 256.159 548.846 257.016C546.847 257.872 545.154 259.076 543.767 260.626C542.38 262.135 541.32 263.95 540.585 266.072C539.892 268.152 539.545 270.416 539.545 272.864C539.545 275.23 539.933 277.412 540.708 279.411C541.483 281.369 542.564 283.062 543.951 284.489C545.338 285.917 547.01 287.039 548.968 287.855C550.967 288.63 553.15 289.017 555.516 289.017C559.717 289.017 563.164 287.916 565.856 285.713C568.549 283.51 570.18 280.308 570.752 276.107H562.369C562.083 278.065 561.369 279.635 560.227 280.818C559.126 281.96 557.535 282.531 555.454 282.531C554.108 282.531 552.966 282.225 552.028 281.614C551.09 281.002 550.335 280.227 549.764 279.288C549.233 278.309 548.846 277.228 548.601 276.045C548.356 274.862 548.234 273.7 548.234 272.558C548.234 271.375 548.356 270.192 548.601 269.009C548.846 267.785 549.254 266.684 549.825 265.705C550.437 264.685 551.212 263.869 552.15 263.257C553.088 262.604 554.251 262.278 555.638 262.278C559.35 262.278 561.492 264.093 562.063 267.724Z" fill="#252A2E"/>
<path d="M583.37 272.435C583.37 271.171 583.492 269.927 583.737 268.703C583.982 267.479 584.39 266.398 584.961 265.46C585.573 264.522 586.368 263.767 587.347 263.196C588.326 262.584 589.55 262.278 591.018 262.278C592.487 262.278 593.711 262.584 594.69 263.196C595.71 263.767 596.505 264.522 597.076 265.46C597.688 266.398 598.116 267.479 598.361 268.703C598.606 269.927 598.728 271.171 598.728 272.435C598.728 273.7 598.606 274.944 598.361 276.168C598.116 277.351 597.688 278.432 597.076 279.411C596.505 280.349 595.71 281.104 594.69 281.675C593.711 282.246 592.487 282.531 591.018 282.531C589.55 282.531 588.326 282.246 587.347 281.675C586.368 281.104 585.573 280.349 584.961 279.411C584.39 278.432 583.982 277.351 583.737 276.168C583.492 274.944 583.37 273.7 583.37 272.435ZM574.681 272.435C574.681 274.964 575.069 277.249 575.844 279.288C576.619 281.328 577.72 283.082 579.148 284.551C580.576 285.978 582.289 287.08 584.288 287.855C586.286 288.63 588.53 289.017 591.018 289.017C593.507 289.017 595.75 288.63 597.749 287.855C599.789 287.08 601.522 285.978 602.95 284.551C604.378 283.082 605.479 281.328 606.254 279.288C607.029 277.249 607.417 274.964 607.417 272.435C607.417 269.906 607.029 267.622 606.254 265.582C605.479 263.502 604.378 261.748 602.95 260.32C601.522 258.851 599.789 257.73 597.749 256.955C595.75 256.139 593.507 255.731 591.018 255.731C588.53 255.731 586.286 256.139 584.288 256.955C582.289 257.73 580.576 258.851 579.148 260.32C577.72 261.748 576.619 263.502 575.844 265.582C575.069 267.622 574.681 269.906 574.681 272.435Z" fill="#252A2E"/>
<path d="M613.311 244.533V288.222H622V244.533H613.311Z" fill="#252A2E"/>
<path d="M381.598 311.774V355.462H412.499V347.385H391.205V311.774H381.598Z" fill="#252A2E"/>
<path d="M416.585 333.557C416.707 331.517 417.217 329.824 418.114 328.478C419.012 327.132 420.154 326.051 421.541 325.235C422.928 324.419 424.478 323.848 426.191 323.522C427.945 323.155 429.699 322.971 431.453 322.971C433.044 322.971 434.656 323.094 436.287 323.338C437.919 323.542 439.408 323.971 440.754 324.623C442.1 325.276 443.202 326.194 444.058 327.377C444.915 328.519 445.343 330.049 445.343 331.966V348.426C445.343 349.853 445.425 351.22 445.588 352.525C445.751 353.831 446.037 354.81 446.445 355.462H437.633C437.47 354.973 437.328 354.483 437.205 353.994C437.124 353.464 437.062 352.933 437.022 352.403C435.635 353.831 434.003 354.83 432.126 355.401C430.25 355.972 428.333 356.258 426.375 356.258C424.865 356.258 423.458 356.074 422.153 355.707C420.847 355.34 419.705 354.769 418.726 353.994C417.747 353.219 416.972 352.24 416.401 351.057C415.871 349.874 415.606 348.466 415.606 346.835C415.606 345.04 415.911 343.571 416.523 342.429C417.176 341.246 417.992 340.308 418.971 339.614C419.991 338.921 421.133 338.411 422.397 338.085C423.703 337.718 425.008 337.432 426.314 337.228C427.619 337.024 428.904 336.861 430.168 336.739C431.433 336.616 432.555 336.433 433.534 336.188C434.513 335.943 435.288 335.596 435.859 335.148C436.43 334.658 436.695 333.965 436.654 333.067C436.654 332.129 436.491 331.395 436.165 330.864C435.879 330.293 435.471 329.865 434.941 329.58C434.452 329.253 433.86 329.049 433.167 328.968C432.514 328.845 431.8 328.784 431.025 328.784C429.312 328.784 427.966 329.151 426.987 329.885C426.008 330.62 425.437 331.844 425.273 333.557H416.585ZM436.654 339.982C436.287 340.308 435.818 340.573 435.247 340.777C434.717 340.94 434.125 341.083 433.473 341.205C432.861 341.328 432.208 341.43 431.515 341.511C430.821 341.593 430.128 341.695 429.434 341.817C428.781 341.94 428.129 342.103 427.476 342.307C426.864 342.511 426.314 342.796 425.824 343.163C425.375 343.49 425.008 343.918 424.723 344.448C424.437 344.979 424.294 345.652 424.294 346.468C424.294 347.243 424.437 347.895 424.723 348.426C425.008 348.956 425.396 349.384 425.885 349.711C426.375 349.996 426.946 350.2 427.599 350.323C428.251 350.445 428.924 350.506 429.618 350.506C431.331 350.506 432.657 350.221 433.595 349.649C434.533 349.078 435.227 348.405 435.675 347.63C436.124 346.814 436.389 345.999 436.471 345.183C436.593 344.367 436.654 343.714 436.654 343.225V339.982Z" fill="#252A2E"/>
<path d="M475.278 339.676C475.278 340.981 475.135 342.246 474.85 343.469C474.564 344.693 474.115 345.774 473.503 346.712C472.892 347.651 472.117 348.405 471.178 348.976C470.281 349.507 469.179 349.772 467.874 349.772C466.61 349.772 465.508 349.507 464.57 348.976C463.632 348.405 462.857 347.651 462.245 346.712C461.633 345.774 461.184 344.693 460.899 343.469C460.613 342.246 460.47 340.981 460.47 339.676C460.47 338.33 460.613 337.045 460.899 335.821C461.184 334.597 461.633 333.516 462.245 332.578C462.857 331.64 463.632 330.905 464.57 330.375C465.508 329.804 466.61 329.518 467.874 329.518C469.179 329.518 470.281 329.804 471.178 330.375C472.117 330.905 472.892 331.64 473.503 332.578C474.115 333.516 474.564 334.597 474.85 335.821C475.135 337.045 475.278 338.33 475.278 339.676ZM452.087 311.774V355.462H460.348V351.424H460.47C461.408 353.178 462.795 354.422 464.631 355.156C466.467 355.891 468.547 356.258 470.872 356.258C472.463 356.258 474.034 355.931 475.584 355.279C477.134 354.626 478.521 353.627 479.745 352.281C481.009 350.934 482.029 349.221 482.804 347.141C483.579 345.019 483.967 342.511 483.967 339.614C483.967 336.718 483.579 334.23 482.804 332.149C482.029 330.028 481.009 328.295 479.745 326.948C478.521 325.602 477.134 324.603 475.584 323.95C474.034 323.297 472.463 322.971 470.872 322.971C468.914 322.971 467.017 323.359 465.182 324.134C463.387 324.868 461.959 326.051 460.899 327.683H460.776V311.774H452.087Z" fill="#252A2E"/>
<path d="M496.225 345.183H487.964C488.046 347.304 488.515 349.078 489.371 350.506C490.269 351.893 491.391 353.015 492.737 353.871C494.124 354.728 495.694 355.34 497.448 355.707C499.202 356.074 500.997 356.258 502.833 356.258C504.628 356.258 506.382 356.074 508.095 355.707C509.849 355.381 511.399 354.789 512.746 353.933C514.092 353.076 515.173 351.954 515.989 350.567C516.845 349.14 517.273 347.385 517.273 345.305C517.273 343.837 516.988 342.613 516.417 341.634C515.846 340.614 515.091 339.778 514.153 339.125C513.215 338.432 512.134 337.881 510.91 337.473C509.727 337.065 508.503 336.718 507.239 336.433C506.015 336.147 504.811 335.882 503.628 335.637C502.445 335.392 501.385 335.127 500.447 334.842C499.549 334.515 498.815 334.107 498.244 333.618C497.673 333.128 497.387 332.496 497.387 331.721C497.387 331.068 497.55 330.559 497.877 330.191C498.203 329.783 498.591 329.478 499.039 329.274C499.529 329.07 500.059 328.947 500.63 328.906C501.201 328.825 501.732 328.784 502.221 328.784C503.771 328.784 505.117 329.09 506.26 329.702C507.402 330.273 508.034 331.395 508.156 333.067H516.417C516.254 331.109 515.744 329.498 514.887 328.233C514.071 326.928 513.031 325.888 511.767 325.113C510.502 324.338 509.054 323.787 507.422 323.461C505.831 323.134 504.179 322.971 502.466 322.971C500.753 322.971 499.08 323.134 497.448 323.461C495.817 323.746 494.348 324.277 493.043 325.052C491.737 325.786 490.677 326.806 489.861 328.111C489.086 329.416 488.698 331.089 488.698 333.128C488.698 334.515 488.984 335.698 489.555 336.677C490.126 337.616 490.881 338.411 491.819 339.064C492.757 339.676 493.818 340.186 495.001 340.594C496.225 340.961 497.469 341.287 498.733 341.573C501.834 342.225 504.24 342.878 505.954 343.531C507.708 344.183 508.585 345.162 508.585 346.468C508.585 347.243 508.401 347.895 508.034 348.426C507.667 348.915 507.198 349.323 506.627 349.649C506.096 349.935 505.484 350.159 504.791 350.323C504.138 350.445 503.506 350.506 502.894 350.506C502.037 350.506 501.201 350.404 500.385 350.2C499.61 349.996 498.917 349.69 498.305 349.282C497.693 348.834 497.183 348.283 496.775 347.63C496.408 346.937 496.225 346.121 496.225 345.183Z" fill="#252A2E"/>
</svg>
