<svg width="800" height="600" viewBox="0 0 800 600" fill="none" xmlns="http://www.w3.org/2000/svg">
<path d="M347.298 295.465L286.149 330.42V310.767L347.298 275.812V295.465Z" fill="#1D6EC6"/>
<path d="M242.463 324.959V290.154V274.732L286.149 249.618L322.334 270.441L339.646 260.54L286.149 229.966L225 264.891V334.801L242.463 344.762V324.959Z" fill="#3294F8"/>
<path d="M286.149 350.072L259.955 335.01V354.753L286.149 369.725L347.298 334.8V315.147L286.149 350.072Z" fill="#3294F8"/>
<path d="M382.283 335.31C382.283 311.997 382.283 288.744 382.283 265.43C398.395 265.43 414.447 265.43 430.59 265.43C430.59 269.661 430.59 273.861 430.59 278.152C418.948 278.152 407.336 278.152 395.665 278.152C395.665 283.193 395.665 288.143 395.665 293.184C406.406 293.184 417.088 293.184 427.829 293.184C427.829 297.475 427.829 301.645 427.829 305.906C417.118 305.906 406.436 305.906 395.665 305.906C395.665 311.487 395.665 317.008 395.665 322.618C407.666 322.618 419.668 322.618 431.73 322.618C431.73 326.909 431.73 331.08 431.73 335.31C415.257 335.31 398.815 335.31 382.283 335.31Z" fill="#333333"/>
<path d="M574.97 335.369C570.739 335.369 566.569 335.369 562.248 335.369C562.248 334.979 562.248 334.589 562.248 334.199C562.248 325.348 562.248 316.497 562.248 307.645C562.248 304.795 561.708 302.125 559.908 299.844C556.967 296.124 551.537 294.863 547.186 296.874C542.775 298.914 541.125 302.635 541.065 307.225C541.005 313.076 541.035 318.957 541.035 324.808C541.035 327.988 541.035 331.169 541.035 334.349C541.035 334.679 541.035 335.009 541.035 335.399C536.745 335.399 532.574 335.399 528.313 335.399C528.313 312.116 528.313 288.863 528.313 265.519C532.484 265.519 536.685 265.519 541.005 265.519C541.005 273.35 541.005 281.182 541.005 289.103C541.185 289.043 541.305 289.043 541.365 288.983C544.246 286.222 547.726 284.722 551.627 284.092C556.247 283.342 560.718 283.822 564.889 286.102C569.599 288.713 572.42 292.793 573.95 297.864C574.7 300.354 574.94 302.875 574.94 305.455C574.94 315.206 574.94 324.958 574.94 334.679C575.03 334.829 575 335.039 574.97 335.369Z" fill="#333333"/>
<path d="M443.791 265.43C448.052 265.43 452.223 265.43 456.483 265.43C456.483 288.743 456.483 311.996 456.483 335.34C452.283 335.34 448.082 335.34 443.791 335.34C443.791 312.056 443.791 288.773 443.791 265.43Z" fill="#333333"/>
<path d="M511.571 290.034C503.38 282.263 491.168 281.453 482.197 288.684C481.987 288.834 481.777 288.984 481.477 289.164L479.346 284.273H469.865C469.865 307.287 469.865 330.18 469.865 353.163C474.126 353.163 478.326 353.163 482.617 353.163C482.617 345.842 482.617 338.581 482.617 331.14C482.887 331.29 483.007 331.35 483.067 331.41C491.048 337.981 502.66 337.291 510.491 330.63C516.192 325.799 519.222 319.558 519.732 312.147C520.392 303.536 517.902 296.035 511.571 290.034ZM505.06 317.698C502.3 322.469 496.749 324.659 491.378 323.429C485.647 322.109 482.047 317.158 481.597 311.307C481.567 310.827 481.597 310.317 481.597 309.837C481.597 305.816 482.737 302.276 485.647 299.365C491.828 293.275 502.93 295.675 505.96 303.806C507.73 308.547 507.61 313.257 505.06 317.698Z" fill="#333333"/>
</svg>
