<svg width="800" height="600" viewBox="0 0 800 600" fill="none" xmlns="http://www.w3.org/2000/svg">
<path d="M253.711 259.785C253.711 252.743 248.007 247 240.926 247C233.884 247 228.14 252.704 228.14 259.785V272.57H240.926C248.007 272.57 253.711 266.827 253.711 259.785Z" fill="#2E63FD"/>
<path d="M253.711 271.232V276.936V278.589V315.252C253.711 336.456 236.559 353.608 215.355 353.608C194.191 353.608 177 336.417 177 315.252C177 294.049 194.152 276.936 215.355 276.936H237.739C237.739 276.936 237.739 276.936 237.778 276.936H240.925C246 276.936 250.563 274.734 253.711 271.232ZM202.61 315.292C202.61 322.333 208.314 328.077 215.395 328.077C222.476 328.077 228.18 322.373 228.18 315.292V302.507H215.395C208.314 302.507 202.61 308.211 202.61 315.292Z" fill="#199AFF"/>
<path d="M392.537 286.85H405.165V342.2H392.537V335.355C387.738 340.745 381.719 343.498 374.481 343.498C366.534 343.498 360.004 340.745 354.811 335.158C349.618 329.533 347.061 322.531 347.061 314.27C347.061 306.008 349.618 299.085 354.811 293.695C360.004 288.306 366.652 285.552 374.481 285.552C381.522 285.552 387.541 288.306 392.537 293.892V286.85ZM388.249 302.547C385.181 299.281 381.325 297.669 376.526 297.669C371.727 297.669 367.872 299.281 364.803 302.547C361.853 305.812 360.319 309.785 360.319 314.466C360.319 319.266 361.853 323.239 364.803 326.504C367.872 329.769 371.727 331.382 376.526 331.382C381.325 331.382 385.181 329.769 388.249 326.504C391.318 323.239 392.852 319.266 392.852 314.466C392.812 309.785 391.278 305.812 388.249 302.547Z" fill="#2A2836"/>
<path d="M459.374 338.935C455.007 342.003 449.578 343.537 443.363 343.537C430.814 343.537 424.401 336.102 424.401 321.94V298.101H415.236V286.89H424.598V267.299H437.737V286.89H456.345V298.101H437.777V321.429C437.777 328.038 440.412 331.421 445.841 331.421C448.91 331.421 452.057 330.516 455.204 328.549L459.374 338.935Z" fill="#2A2836"/>
<path d="M469.366 319.069V286.85H482.701V319.069C482.701 326.504 487.068 331.421 494.306 331.421C501.663 331.421 506.029 326.543 506.029 319.069V286.85H519.365V319.069C519.365 334.45 509.885 343.537 494.306 343.537C478.964 343.537 469.366 334.45 469.366 319.069Z" fill="#2A2836"/>
<path d="M615.666 291.65C619.836 295.82 622 301.524 622 308.88V342.2H608.664V311.319C608.664 302.35 604.062 297.551 597.138 297.551C589.703 297.551 584.392 303.176 584.392 311.712V342.2H571.135V311.398C571.135 302.743 566.454 297.551 559.412 297.551C551.977 297.551 546.548 303.176 546.548 311.83V342.2H533.291V286.85H546.352V294.797C549.499 288.975 555.95 285.316 563.189 285.316C570.427 285.434 576.76 288.778 579.711 295.19C583.684 288.975 591.119 285.316 599.577 285.316C606.186 285.316 611.497 287.48 615.666 291.65Z" fill="#2A2836"/>
<path d="M324.127 267.142V293.892C319.564 288.306 313.742 285.552 306.7 285.552C298.95 285.552 292.42 288.306 287.109 293.892C281.917 299.517 279.242 306.323 279.242 314.466C279.242 322.727 281.877 329.651 287.109 335.276C292.302 340.784 298.95 343.537 306.779 343.537C313.899 343.537 319.839 340.666 324.402 334.962V342.2H337.345V267.142H324.127ZM320.351 326.504C317.4 329.769 313.427 331.382 308.628 331.382C303.828 331.382 299.973 329.769 297.023 326.504C294.072 323.239 292.538 319.265 292.538 314.466C292.538 309.785 294.072 305.812 297.023 302.547C299.973 299.281 303.868 297.669 308.628 297.669C313.427 297.669 317.282 299.281 320.232 302.547C323.301 305.812 324.835 309.785 324.835 314.466C324.835 319.265 323.34 323.239 320.351 326.504Z" fill="#2A2836"/>
</svg>
